<?xml version="1.0" encoding="iso-8859-1"?>
<!-- Generator: Adobe Illustrator 19.0.0, SVG Export Plug-In . SVG Version: 6.00 Build 0)  -->
<svg version="1.1" id="Capa_1" xmlns="http://www.w3.org/2000/svg" xmlns:xlink="http://www.w3.org/1999/xlink" x="0px" y="0px"
	 viewBox="0 0 512 512" style="enable-background:new 0 0 512 512;" xml:space="preserve">
<rect x="7.604" y="64.886" style="fill:#E1E8EF;" width="496.792" height="382.226"/>
<rect x="7.604" y="64.886" style="fill:#F4E662;" width="496.792" height="64.887"/>
<path d="M504.396,57.282H7.604C3.405,57.282,0,60.687,0,64.886v382.228c0,4.199,3.405,7.604,7.604,7.604h356.939
	c4.199,0,7.604-3.405,7.604-7.604l0,0c0-4.199-3.405-7.604-7.604-7.604H15.208V137.378h54.825c4.199,0,7.604-3.405,7.604-7.604l0,0
	c0-4.199-3.405-7.604-7.604-7.604H15.208V72.49h481.584v49.68H105.52c-4.199,0-7.604,3.405-7.604,7.604l0,0
	c0,4.199,3.405,7.604,7.604,7.604h391.272V439.51h-96.763c-4.199,0-7.604,3.405-7.604,7.604l0,0c0,4.199,3.405,7.604,7.604,7.604
	h104.367c4.199,0,7.604-3.405,7.604-7.604V64.886C512,60.687,508.595,57.282,504.396,57.282z"/>
<path d="M149.04,280.296l46.492-30.406c0.708-0.53,1.768-0.707,2.652-0.707c3.712,0,8.485,3.889,8.485,8.839
	c0,2.122-1.061,4.067-2.651,5.127l-37.124,24.396l37.124,24.396c1.591,0.884,2.651,2.829,2.651,5.127
	c0,4.95-4.773,8.661-8.485,8.661c-0.884,0-1.945-0.176-2.652-0.707l-46.492-30.406c-2.652-1.768-3.89-4.773-3.89-7.072
	C145.149,285.247,146.387,282.064,149.04,280.296z"/>
<path d="M295.767,217.249c0,1.061-0.177,1.945-0.708,2.829L230.182,349.48c-1.062,2.121-3.359,3.359-5.834,3.359
	c-4.067,0-6.895-3.359-6.895-6.54c0-0.884,0.177-1.768,0.53-2.652l65.054-129.932c1.062-2.298,3.006-3.183,5.303-3.183
	C291.878,210.531,295.767,213.184,295.767,217.249z"/>
<path d="M364.002,294.616l-46.493,30.406c-0.707,0.53-1.591,0.707-2.475,0.707c-3.889,0-8.485-3.713-8.485-8.661
	c0-2.298,1.06-4.243,2.475-5.127l37.3-24.396l-37.3-24.396c-1.415-1.06-2.475-3.005-2.475-5.127c0-4.95,4.596-8.839,8.485-8.839
	c0.884,0,1.768,0.176,2.475,0.707l46.493,30.406c2.651,1.768,3.889,4.95,3.889,7.248
	C367.891,289.842,366.83,292.848,364.002,294.616z"/>
<path d="M464.615,101.547c3.757,5.498,12.539,3.778,13.796-2.81c1.302-6.829-6.939-11.689-12.29-7.283
	C463.158,93.894,462.457,98.346,464.615,101.547z"/>
<path d="M423.594,102.703c2.404-2.337,2.907-6.225,1.239-9.118c-1.653-2.867-5.035-4.404-8.282-3.667
	c-3.164,0.718-5.575,3.433-5.897,6.667c-0.294,2.957,1.234,5.885,3.814,7.353C417.402,105.603,421.212,105.103,423.594,102.703z"/>
<path d="M438.255,101.547c3.676,5.38,12.237,3.886,13.73-2.504c0.711-3.041-0.589-6.308-3.186-8.04
	c-2.786-1.858-6.616-1.643-9.158,0.546C436.777,94.016,436.127,98.391,438.255,101.547z"/>
<g>
</g>
<g>
</g>
<g>
</g>
<g>
</g>
<g>
</g>
<g>
</g>
<g>
</g>
<g>
</g>
<g>
</g>
<g>
</g>
<g>
</g>
<g>
</g>
<g>
</g>
<g>
</g>
<g>
</g>
</svg>
